<svg xmlns="http://www.w3.org/2000/svg" version="1.1" xlink="http://www.w3.org/1999/xlink" svgjs="http://svgjs.dev/svgjs" width="1920" height="1040" preserveAspectRatio="none" viewBox="0 0 1920 1040"><g mask="url(&quot;#SvgjsMask1104&quot;)" fill="none"><rect width="1920" height="1040" x="0" y="0" fill="rgba(245, 245, 245, 1)"></rect><use href="#SvgjsG1108" transform="translate(0, 0)" fill="rgba(3, 7, 30, 1)"></use><use href="#SvgjsG1108" transform="translate(0, 480)" fill="rgba(3, 7, 30, 1)"></use><use href="#SvgjsG1108" transform="translate(0, 960)" fill="rgba(3, 7, 30, 1)"></use><use href="#SvgjsG1108" transform="translate(480, 0)" fill="rgba(3, 7, 30, 1)"></use><use href="#SvgjsG1108" transform="translate(480, 480)" fill="rgba(3, 7, 30, 1)"></use><use href="#SvgjsG1108" transform="translate(480, 960)" fill="rgba(3, 7, 30, 1)"></use><use href="#SvgjsG1108" transform="translate(960, 0)" fill="rgba(3, 7, 30, 1)"></use><use href="#SvgjsG1108" transform="translate(960, 480)" fill="rgba(3, 7, 30, 1)"></use><use href="#SvgjsG1108" transform="translate(960, 960)" fill="rgba(3, 7, 30, 1)"></use><use href="#SvgjsG1108" transform="translate(1440, 0)" fill="rgba(3, 7, 30, 1)"></use><use href="#SvgjsG1108" transform="translate(1440, 480)" fill="rgba(3, 7, 30, 1)"></use><use href="#SvgjsG1108" transform="translate(1440, 960)" fill="rgba(3, 7, 30, 1)"></use></g><defs><mask id="SvgjsMask1104"><rect width="1920" height="1040" fill="#ffffff"></rect></mask><g id="SvgjsG1105"><path d="M3.755 2.315h2.494v11.128h-2.494zM13.507 0.537H16v11.261h-2.493z"></path><path d="M4.451 5.556l-0.696-3.24L16 0v3.167z"></path><path d="M0 13.443a3.124 2.606 0 1 0 6.249 0 3.124 2.606 0 1 0-6.249 0"></path><path d="M9.751 11.798a3.124 2.606 0 1 0 6.249 0 3.124 2.606 0 1 0-6.249 0"></path></g><g id="SvgjsG1107"><path d="M0 5.2h3.15v5.6H0z"></path><path d="M6.257 14.325L2.407 10.8v-5.511l3.85-3.614L7.141 8z"></path><path d="M6.257 1.675S7.14 4.852 7.14 8s-0.883 6.325-0.883 6.325m7.927 0.947l-1.304-0.671c0.015-0.03 1.562-3.093 1.562-6.825 0-3.707-1.789-6.755-1.807-6.785l1.258-0.754c0.082 0.137 2.015 3.412 2.015 7.538 0 4.101-1.653 7.361-1.724 7.497z"></path><path d="M11.799 13.516l-1.304-0.671c0.011-0.021 1.138-2.258 1.137-4.979 0-2.712-1.301-4.915-1.313-4.937l1.257-0.753c0.063 0.104 1.523 2.579 1.523 5.691 0 3.088-1.248 5.545-1.302 5.649z"></path><path d="M9.543 11.59l-1.304-0.671c0.006-0.012 0.696-1.387 0.696-3.053 0-1.64-0.793-3-0.801-3.013l1.259-0.752c0.041 0.069 1.009 1.708 1.01 3.765 0 2.033-0.823 3.656-0.859 3.724z"></path></g><g id="SvgjsG1106"><path d="M14.344 10.747c0 2.735-2.217 4.952-4.952 4.952-2.735 0-4.952-2.217-4.953-4.952 0-1.3 0.294-3.189 2.021-4.918 3.16-3.16 3.308-4.973 3.308-4.973 3.797 3.797 4.576 7.155 4.576 9.889z"></path><path d="M3.978 3.8s0.461 3.022 3.141 4.749c1.488 0.959 4.571 3.643 4.57 4.584 0 1.981-4.712 2.565-6.693 2.566s-3.588-1.606-3.588-3.588c0-1.982-0.18-5.56 2.571-8.311z"></path><path d="M8.123 6.557s0.08 0.983 1.792 2.695c0.936 0.935 1.095 1.959 1.095 2.663 0 1.482-1.201 2.683-2.684 2.683s-2.683-1.201-2.683-2.684c0-1.481 0.422-3.301 2.48-5.358z"></path></g><g id="SvgjsG1108"><use href="#SvgjsG1105" transform="translate(0, 0) scale(2)" fill="rgba(3, 7, 30, 1)"></use><use href="#SvgjsG1105" transform="translate(0, 48) scale(2)" fill="rgba(3, 7, 30, 1)"></use><use href="#SvgjsG1105" transform="translate(0, 96) scale(2)" fill="rgba(3, 7, 30, 1)"></use><use href="#SvgjsG1105" transform="translate(0, 144) scale(2)" fill="rgba(3, 7, 30, 1)"></use><use href="#SvgjsG1105" transform="translate(0, 192) scale(2)" fill="rgba(3, 7, 30, 1)"></use><use href="#SvgjsG1106" transform="translate(0, 240) scale(2)" fill="rgba(3, 7, 30, 1)"></use><use href="#SvgjsG1106" transform="translate(0, 288) scale(2)" fill="rgba(3, 7, 30, 1)"></use><use href="#SvgjsG1107" transform="translate(0, 336) scale(2)" fill="rgba(3, 7, 30, 1)"></use><use href="#SvgjsG1105" transform="translate(0, 384) scale(2)" fill="rgba(3, 7, 30, 1)"></use><use href="#SvgjsG1107" transform="translate(0, 432) scale(2)" fill="rgba(3, 7, 30, 1)"></use><use href="#SvgjsG1105" transform="translate(48, 0) scale(2)" fill="rgba(3, 7, 30, 1)"></use><use href="#SvgjsG1107" transform="translate(48, 48) scale(2)" fill="rgba(3, 7, 30, 1)"></use><use href="#SvgjsG1107" transform="translate(48, 96) scale(2)" fill="rgba(3, 7, 30, 1)"></use><use href="#SvgjsG1105" transform="translate(48, 144) scale(2)" fill="rgba(3, 7, 30, 1)"></use><use href="#SvgjsG1105" transform="translate(48, 192) scale(2)" fill="rgba(3, 7, 30, 1)"></use><use href="#SvgjsG1106" transform="translate(48, 240) scale(2)" fill="rgba(3, 7, 30, 1)"></use><use href="#SvgjsG1107" transform="translate(48, 288) scale(2)" fill="rgba(3, 7, 30, 1)"></use><use href="#SvgjsG1107" transform="translate(48, 336) scale(2)" fill="rgba(3, 7, 30, 1)"></use><use href="#SvgjsG1107" transform="translate(48, 384) scale(2)" fill="rgba(3, 7, 30, 1)"></use><use href="#SvgjsG1107" transform="translate(48, 432) scale(2)" fill="rgba(3, 7, 30, 1)"></use><use href="#SvgjsG1106" transform="translate(96, 0) scale(2)" fill="rgba(3, 7, 30, 1)"></use><use href="#SvgjsG1107" transform="translate(96, 48) scale(2)" fill="rgba(3, 7, 30, 1)"></use><use href="#SvgjsG1107" transform="translate(96, 96) scale(2)" fill="rgba(3, 7, 30, 1)"></use><use href="#SvgjsG1107" transform="translate(96, 144) scale(2)" fill="rgba(3, 7, 30, 1)"></use><use href="#SvgjsG1106" transform="translate(96, 192) scale(2)" fill="rgba(3, 7, 30, 1)"></use><use href="#SvgjsG1105" transform="translate(96, 240) scale(2)" fill="rgba(3, 7, 30, 1)"></use><use href="#SvgjsG1106" transform="translate(96, 288) scale(2)" fill="rgba(3, 7, 30, 1)"></use><use href="#SvgjsG1107" transform="translate(96, 336) scale(2)" fill="rgba(3, 7, 30, 1)"></use><use href="#SvgjsG1105" transform="translate(96, 384) scale(2)" fill="rgba(3, 7, 30, 1)"></use><use href="#SvgjsG1107" transform="translate(96, 432) scale(2)" fill="rgba(3, 7, 30, 1)"></use><use href="#SvgjsG1106" transform="translate(144, 0) scale(2)" fill="rgba(3, 7, 30, 1)"></use><use href="#SvgjsG1106" transform="translate(144, 48) scale(2)" fill="rgba(3, 7, 30, 1)"></use><use href="#SvgjsG1105" transform="translate(144, 96) scale(2)" fill="rgba(3, 7, 30, 1)"></use><use href="#SvgjsG1105" transform="translate(144, 144) scale(2)" fill="rgba(3, 7, 30, 1)"></use><use href="#SvgjsG1106" transform="translate(144, 192) scale(2)" fill="rgba(3, 7, 30, 1)"></use><use href="#SvgjsG1106" transform="translate(144, 240) scale(2)" fill="rgba(3, 7, 30, 1)"></use><use href="#SvgjsG1105" transform="translate(144, 288) scale(2)" fill="rgba(3, 7, 30, 1)"></use><use href="#SvgjsG1105" transform="translate(144, 336) scale(2)" fill="rgba(3, 7, 30, 1)"></use><use href="#SvgjsG1105" transform="translate(144, 384) scale(2)" fill="rgba(3, 7, 30, 1)"></use><use href="#SvgjsG1107" transform="translate(144, 432) scale(2)" fill="rgba(3, 7, 30, 1)"></use><use href="#SvgjsG1105" transform="translate(192, 0) scale(2)" fill="rgba(3, 7, 30, 1)"></use><use href="#SvgjsG1105" transform="translate(192, 48) scale(2)" fill="rgba(3, 7, 30, 1)"></use><use href="#SvgjsG1105" transform="translate(192, 96) scale(2)" fill="rgba(3, 7, 30, 1)"></use><use href="#SvgjsG1106" transform="translate(192, 144) scale(2)" fill="rgba(3, 7, 30, 1)"></use><use href="#SvgjsG1105" transform="translate(192, 192) scale(2)" fill="rgba(3, 7, 30, 1)"></use><use href="#SvgjsG1105" transform="translate(192, 240) scale(2)" fill="rgba(3, 7, 30, 1)"></use><use href="#SvgjsG1105" transform="translate(192, 288) scale(2)" fill="rgba(3, 7, 30, 1)"></use><use href="#SvgjsG1107" transform="translate(192, 336) scale(2)" fill="rgba(3, 7, 30, 1)"></use><use href="#SvgjsG1105" transform="translate(192, 384) scale(2)" fill="rgba(3, 7, 30, 1)"></use><use href="#SvgjsG1106" transform="translate(192, 432) scale(2)" fill="rgba(3, 7, 30, 1)"></use><use href="#SvgjsG1107" transform="translate(240, 0) scale(2)" fill="rgba(3, 7, 30, 1)"></use><use href="#SvgjsG1107" transform="translate(240, 48) scale(2)" fill="rgba(3, 7, 30, 1)"></use><use href="#SvgjsG1106" transform="translate(240, 96) scale(2)" fill="rgba(3, 7, 30, 1)"></use><use href="#SvgjsG1107" transform="translate(240, 144) scale(2)" fill="rgba(3, 7, 30, 1)"></use><use href="#SvgjsG1105" transform="translate(240, 192) scale(2)" fill="rgba(3, 7, 30, 1)"></use><use href="#SvgjsG1105" transform="translate(240, 240) scale(2)" fill="rgba(3, 7, 30, 1)"></use><use href="#SvgjsG1107" transform="translate(240, 288) scale(2)" fill="rgba(3, 7, 30, 1)"></use><use href="#SvgjsG1107" transform="translate(240, 336) scale(2)" fill="rgba(3, 7, 30, 1)"></use><use href="#SvgjsG1107" transform="translate(240, 384) scale(2)" fill="rgba(3, 7, 30, 1)"></use><use href="#SvgjsG1106" transform="translate(240, 432) scale(2)" fill="rgba(3, 7, 30, 1)"></use><use href="#SvgjsG1107" transform="translate(288, 0) scale(2)" fill="rgba(3, 7, 30, 1)"></use><use href="#SvgjsG1105" transform="translate(288, 48) scale(2)" fill="rgba(3, 7, 30, 1)"></use><use href="#SvgjsG1106" transform="translate(288, 96) scale(2)" fill="rgba(3, 7, 30, 1)"></use><use href="#SvgjsG1106" transform="translate(288, 144) scale(2)" fill="rgba(3, 7, 30, 1)"></use><use href="#SvgjsG1107" transform="translate(288, 192) scale(2)" fill="rgba(3, 7, 30, 1)"></use><use href="#SvgjsG1105" transform="translate(288, 240) scale(2)" fill="rgba(3, 7, 30, 1)"></use><use href="#SvgjsG1105" transform="translate(288, 288) scale(2)" fill="rgba(3, 7, 30, 1)"></use><use href="#SvgjsG1106" transform="translate(288, 336) scale(2)" fill="rgba(3, 7, 30, 1)"></use><use href="#SvgjsG1106" transform="translate(288, 384) scale(2)" fill="rgba(3, 7, 30, 1)"></use><use href="#SvgjsG1105" transform="translate(288, 432) scale(2)" fill="rgba(3, 7, 30, 1)"></use><use href="#SvgjsG1105" transform="translate(336, 0) scale(2)" fill="rgba(3, 7, 30, 1)"></use><use href="#SvgjsG1105" transform="translate(336, 48) scale(2)" fill="rgba(3, 7, 30, 1)"></use><use href="#SvgjsG1106" transform="translate(336, 96) scale(2)" fill="rgba(3, 7, 30, 1)"></use><use href="#SvgjsG1106" transform="translate(336, 144) scale(2)" fill="rgba(3, 7, 30, 1)"></use><use href="#SvgjsG1107" transform="translate(336, 192) scale(2)" fill="rgba(3, 7, 30, 1)"></use><use href="#SvgjsG1105" transform="translate(336, 240) scale(2)" fill="rgba(3, 7, 30, 1)"></use><use href="#SvgjsG1105" transform="translate(336, 288) scale(2)" fill="rgba(3, 7, 30, 1)"></use><use href="#SvgjsG1107" transform="translate(336, 336) scale(2)" fill="rgba(3, 7, 30, 1)"></use><use href="#SvgjsG1105" transform="translate(336, 384) scale(2)" fill="rgba(3, 7, 30, 1)"></use><use href="#SvgjsG1105" transform="translate(336, 432) scale(2)" fill="rgba(3, 7, 30, 1)"></use><use href="#SvgjsG1106" transform="translate(384, 0) scale(2)" fill="rgba(3, 7, 30, 1)"></use><use href="#SvgjsG1107" transform="translate(384, 48) scale(2)" fill="rgba(3, 7, 30, 1)"></use><use href="#SvgjsG1107" transform="translate(384, 96) scale(2)" fill="rgba(3, 7, 30, 1)"></use><use href="#SvgjsG1107" transform="translate(384, 144) scale(2)" fill="rgba(3, 7, 30, 1)"></use><use href="#SvgjsG1106" transform="translate(384, 192) scale(2)" fill="rgba(3, 7, 30, 1)"></use><use href="#SvgjsG1107" transform="translate(384, 240) scale(2)" fill="rgba(3, 7, 30, 1)"></use><use href="#SvgjsG1105" transform="translate(384, 288) scale(2)" fill="rgba(3, 7, 30, 1)"></use><use href="#SvgjsG1107" transform="translate(384, 336) scale(2)" fill="rgba(3, 7, 30, 1)"></use><use href="#SvgjsG1106" transform="translate(384, 384) scale(2)" fill="rgba(3, 7, 30, 1)"></use><use href="#SvgjsG1106" transform="translate(384, 432) scale(2)" fill="rgba(3, 7, 30, 1)"></use><use href="#SvgjsG1106" transform="translate(432, 0) scale(2)" fill="rgba(3, 7, 30, 1)"></use><use href="#SvgjsG1105" transform="translate(432, 48) scale(2)" fill="rgba(3, 7, 30, 1)"></use><use href="#SvgjsG1106" transform="translate(432, 96) scale(2)" fill="rgba(3, 7, 30, 1)"></use><use href="#SvgjsG1107" transform="translate(432, 144) scale(2)" fill="rgba(3, 7, 30, 1)"></use><use href="#SvgjsG1107" transform="translate(432, 192) scale(2)" fill="rgba(3, 7, 30, 1)"></use><use href="#SvgjsG1105" transform="translate(432, 240) scale(2)" fill="rgba(3, 7, 30, 1)"></use><use href="#SvgjsG1106" transform="translate(432, 288) scale(2)" fill="rgba(3, 7, 30, 1)"></use><use href="#SvgjsG1105" transform="translate(432, 336) scale(2)" fill="rgba(3, 7, 30, 1)"></use><use href="#SvgjsG1106" transform="translate(432, 384) scale(2)" fill="rgba(3, 7, 30, 1)"></use><use href="#SvgjsG1107" transform="translate(432, 432) scale(2)" fill="rgba(3, 7, 30, 1)"></use></g></defs></svg>