<svg xmlns="http://www.w3.org/2000/svg" version="1.1" xlink="http://www.w3.org/1999/xlink" svgjs="http://svgjs.dev/svgjs" width="1920" height="1080" preserveAspectRatio="none" viewBox="0 0 1920 1080"><g mask="url(&quot;#SvgjsMask1012&quot;)" fill="none"><rect width="1920" height="1080" x="0" y="0" fill="rgba(245, 245, 245, 1)"></rect><path d="M2080 1080L0 1080 L0 750.5Q-22.74 567.76, 160 545.03Q370.43 595.46, 320 805.9Q313.19 703.09, 416 696.27Q478.41 598.68, 576 661.1Q600.23 525.33, 736 549.55Q790.31 507.86, 832 562.17Q974.31 544.48, 992 686.79Q1059.9 594.69, 1152 662.6Q1259.25 609.86, 1312 717.11Q1398.05 707.16, 1408 793.22Q1440.31 665.53, 1568 697.84Q1664.23 634.08, 1728 730.31Q1850.19 756.5, 1824 878.7Q1726.68 685.38, 1920 588.06Q2133.03 641.09, 2080 854.11z" fill="rgba(144, 80, 220, 1)"></path><path d="M2016 1080L0 1080 L0 963.13Q117.02 984.15, 96 1101.17Q8.35 917.52, 192 829.87Q346.11 887.98, 288 1042.09Q428.21 1022.3, 448 1162.5Q465.74 1084.24, 544 1101.99Q646.21 1044.2, 704 1146.41Q721.37 1067.78, 800 1085.14Q779.32 904.47, 960 883.79Q988.3 816.09, 1056 844.38Q1087.59 779.97, 1152 811.56Q1275.88 775.44, 1312 899.33Q1438.3 865.63, 1472 991.94Q1529.13 953.08, 1568 1010.21Q1584.33 930.54, 1664 946.87Q1749.89 872.76, 1824 958.65Q1832.59 871.24, 1920 879.82Q1955.81 819.63, 2016 855.44z" fill="rgba(3, 7, 30, 1)"></path></g><defs><mask id="SvgjsMask1012"><rect width="1920" height="1080" fill="#ffffff"></rect></mask></defs></svg>