<svg xmlns="http://www.w3.org/2000/svg" version="1.1" xlink="http://www.w3.org/1999/xlink" svgjs="http://svgjs.dev/svgjs" width="1920" height="1040" preserveAspectRatio="none" viewBox="0 0 1920 1040"><g mask="url(&quot;#SvgjsMask1010&quot;)" fill="none"><rect width="1920" height="1040" x="0" y="0" fill="rgba(245, 245, 245, 1)"></rect><path d="M260 171.6C207.64 171.6 154.76 219.46 154.76 260C154.76 296.64 207.56 325.97 260 325.97C311.57 325.97 362.79 296.58 362.79 260C362.79 219.4 311.65 171.6 260 171.6" stroke="rgba(144, 80, 220, 1)" stroke-width="2"></path><path d="M469.27 0C505.05 8.42 496.5 61.18 520 61.18C541.49 61.18 527.05 7.58 559.25 0C657.05 -23.01 669.63 0 780 0C910 0 910 0 1040 0C1170 0 1170 0 1300 0C1430 0 1430 0 1560 0C1690 0 1690 0 1820 0C1950 0 2015 -65 2080 0C2145 65 2080 130 2080 260C2080 390 2080 390 2080 520C2080 650 2080 650 2080 780C2080 861.57 2110.41 875.92 2080 943.14C2051.6 1005.92 2029.58 1014.96 1962.38 1040C1899.58 1063.39 1891.19 1040 1820 1040C1690 1040 1690 1040 1560 1040C1467.43 1040 1437.72 1084.24 1374.85 1040C1307.72 992.76 1339.59 857.04 1300 857.04C1259.58 857.04 1284.49 990.98 1214.83 1040C1154.49 1082.46 1127.41 1040 1040 1040C910 1040 910 1040 780 1040C702.7 1040 699.64 1053.92 625.41 1040C569.64 1029.54 563.82 1028.12 520 991.25C409.31 898.12 416.14 887.45 316.39 780C286.14 747.42 289.77 711.18 260 711.18C227.66 711.18 193.16 736.3 192.17 780C189.44 900.71 301.94 973.2 252.57 1040C205.85 1103.2 62.23 1104.06 0 1040C-64.06 974.06 0 910 0 780C0 650 0 650 0 520C0 390 0 390 0 260C0 130 -65 65 0 0C65 -65 130 0 260 0C364.63 0 375.05 -22.17 469.27 0" stroke="rgba(144, 80, 220, 1)" stroke-width="2"></path><path d="M520 395.2C464.95 395.2 435.68 463.61 435.68 520C435.68 561.06 471.67 590.11 520 590.11C611.33 590.11 715 566.03 715 520C715 468.57 604.61 395.2 520 395.2" stroke="rgba(144, 80, 220, 1)" stroke-width="2"></path><path d="M260 41.6C129.79 150.55 73.62 271.78 0 260C-56.38 250.98 -65 65 0 0C65 -65 130 0 260 0C285.37 0 310.73 -9.07 310.73 0C310.73 11.73 285.16 20.55 260 41.6" stroke="rgba(144, 80, 220, 1)" stroke-width="2"></path><path d="M513.95 260C513.95 256.47 516.42 252.35 520 252.35C524.86 252.35 530.83 256.63 530.83 260C530.83 263.05 525.07 265.2 520 265.2C516.63 265.2 513.95 262.89 513.95 260" stroke="rgba(144, 80, 220, 1)" stroke-width="2"></path><path d="M780 120.93C732.36 59.37 681.89 37.09 681.89 0C681.89 -23.37 730.94 0 780 0C852.22 0 858.76 -20.61 924.44 0C988.76 20.18 976.57 81.57 1040 81.57C1149.9 81.57 1154.82 36.48 1271.11 0C1284.82 -4.3 1285.55 0 1300 0C1386.66 0 1473.33 -11.61 1473.33 0C1473.33 12.03 1351 -11.28 1300 47.27C1237.75 118.72 1246.82 162.99 1246.82 260C1246.82 289.53 1275.03 278.23 1300 300.34C1421.81 408.23 1433.93 401.68 1540.38 520C1563.93 546.18 1549.15 589.33 1560 589.33C1571.06 589.33 1560.73 547.53 1584.19 520C1690.73 394.96 1684.81 321.6 1820 284.19C1932.72 252.99 1992.96 303.83 2080 382.78C2122.96 421.74 2080 451.39 2080 520C2080 650 2080 650 2080 780C2080 797.85 2093.03 804.52 2080 815.69C1963.03 915.95 1944.17 903.98 1820 1002.86C1803.33 1016.13 1818.2 1037.16 1798.33 1040C1688.2 1055.73 1679.16 1040 1560 1040C1516.66 1040 1486.08 1072.46 1473.33 1040C1435.01 942.46 1510.12 878.58 1457.86 780C1423.45 715.1 1369.77 761.08 1300 713.03C1181.01 631.08 1186.18 620.23 1080.34 520C1056.18 497.12 1060.17 493.41 1040 466.82C961.55 363.41 961.09 363.75 883.1 260C831.09 190.81 832.96 189.37 780 120.93" stroke="rgba(144, 80, 220, 1)" stroke-width="2"></path><path d="M1820 233.33C1705.31 233.33 1567.22 67.25 1567.22 0C1567.22 -49.42 1693.61 0 1820 0C1904.26 0 1988.52 -43.08 1988.52 0C1988.52 73.58 1915.96 233.33 1820 233.33" stroke="rgba(144, 80, 220, 1)" stroke-width="2"></path><path d="M97.5 520C97.5 471.76 186 422.99 260 422.99C311.17 422.99 347.84 471.66 347.84 520C347.84 567.96 311.04 615.59 260 615.59C185.87 615.59 97.5 568.06 97.5 520" stroke="rgba(144, 80, 220, 1)" stroke-width="2"></path><path d="M0 615.12C26.34 615.12 64.6 691.24 97.97 780C144.46 903.68 190.37 958.63 159.71 1040C141.39 1088.63 30.39 1089.47 0 1040C-49.47 959.47 0 910 0 780C0 697.56 -22.64 615.12 0 615.12" stroke="rgba(144, 80, 220, 1)" stroke-width="2"></path><path d="M394.7 780C394.7 719.91 445.12 699.6 520 663.15C637.77 605.83 664.22 564.28 780 592.46C904.22 622.7 904.07 675.92 1000 780C1034.07 816.96 1021.14 826.82 1040 874.55C1072.52 956.82 1102.76 978.93 1102.76 1040C1102.76 1061.66 1071.38 1040 1040 1040C932.94 1040 931.75 1046.76 825.88 1040C801.75 1038.46 802.45 1032.94 780 1023.4C649.51 967.94 637.72 984.36 520 910C445.07 862.66 394.7 843.33 394.7 780" stroke="rgba(144, 80, 220, 1)" stroke-width="2"></path><path d="M995.17 260C995.17 233.7 1015.83 209.02 1040 209.02C1067.79 209.02 1099.09 233.42 1099.09 260C1099.09 288.46 1067.53 319.09 1040 319.09C1015.57 319.09 995.17 288.73 995.17 260" stroke="rgba(144, 80, 220, 1)" stroke-width="2"></path><path d="M1820 66.67C1787.23 66.67 1747.78 19.22 1747.78 0C1747.78 -14.12 1783.89 0 1820 0C1844.07 0 1868.15 -12.31 1868.15 0C1868.15 21.03 1847.42 66.67 1820 66.67" stroke="rgba(144, 80, 220, 1)" stroke-width="2"></path><path d="M1192.41 520C1192.41 467.94 1244.99 412.41 1300 412.41C1357.66 412.41 1417.74 468.08 1417.74 520C1417.74 569.15 1357.82 614.55 1300 614.55C1245.16 614.55 1192.41 569.01 1192.41 520" stroke="rgba(144, 80, 220, 1)" stroke-width="2"></path><path d="M1735.35 520C1735.35 472.9 1770.19 435.35 1820 435.35C1903.52 435.35 2002 468.44 2002 520C2002 578.17 1898.3 654.81 1820 654.81C1764.97 654.81 1735.35 582.63 1735.35 520" stroke="rgba(144, 80, 220, 1)" stroke-width="2"></path><path d="M0 773.66C1.01 773.66 2.87 776.43 3.77 780C36.3 909.6 68.37 935.99 66.86 1040C66.48 1065.99 6.84 1066.59 0 1040C-26.59 936.59 0 910 0 780C0 776.83 -0.87 773.66 0 773.66" stroke="rgba(144, 80, 220, 1)" stroke-width="2"></path><path d="M473.01 780C473.01 757.46 489.83 744.14 520 736.18C643.33 703.65 659.68 684.17 780 699.02C837.18 706.08 875 736.42 875 780C875 829.46 841.68 876.64 780 885.11C664.18 901.01 642.35 870.64 520 828.75C488.86 818.09 473.01 803.75 473.01 780" stroke="rgba(144, 80, 220, 1)" stroke-width="2"></path></g><defs><mask id="SvgjsMask1010"><rect width="1920" height="1040" fill="#ffffff"></rect></mask></defs></svg>