<svg xmlns="http://www.w3.org/2000/svg" version="1.1" xlink="http://www.w3.org/1999/xlink" svgjs="http://svgjs.dev/svgjs" width="1920" height="1080" preserveAspectRatio="none" viewBox="0 0 1920 1080"><g mask="url(&quot;#SvgjsMask1000&quot;)" fill="none"><rect width="1920" height="1080" x="0" y="0" fill="rgba(245, 245, 245, 1)"></rect><path d="M2068.76 721.06C1816 711.98 1540.67 336.53 1144.05 310.66 747.42 284.79 827.65-34.6 681.69-55.93" stroke="rgba(144, 80, 220, 1)" stroke-width="2"></path><path d="M2157.81 139.15C1985.96 166.45 1899.18 584.59 1620.8 581.95 1342.42 579.31 1294.91-69.04 1083.79-155.06" stroke="rgba(144, 80, 220, 1)" stroke-width="2"></path><path d="M2293.17 284.45C2067.82 295.15 1907.04 689.52 1484.07 684.05 1061.09 678.58 965.09-128.1 674.96-209.87" stroke="rgba(144, 80, 220, 1)" stroke-width="2"></path><path d="M1976.63 388.41C1748.24 392.29 1561.02 684.85 1110.73 680.01 660.44 675.17 532-51.28 244.83-107.05" stroke="rgba(144, 80, 220, 1)" stroke-width="2"></path><path d="M2302.09 309.07C2160.15 308.09 2026.34 174.07 1750.59 174.07 1474.84 174.07 1478.58 309.68 1199.1 309.07 919.61 308.46 806.27 2.91 647.6-8.14" stroke="rgba(144, 80, 220, 1)" stroke-width="2"></path></g><defs><mask id="SvgjsMask1000"><rect width="1920" height="1080" fill="#ffffff"></rect></mask></defs></svg>