<svg xmlns="http://www.w3.org/2000/svg" version="1.1" xlink="http://www.w3.org/1999/xlink" svgjs="http://svgjs.dev/svgjs" width="1920" height="1040" preserveAspectRatio="none" viewBox="0 0 1920 1040"><g mask="url(&quot;#SvgjsMask1017&quot;)" fill="none"><rect width="1920" height="1040" x="0" y="0" fill="rgba(245, 245, 245, 1)"></rect><path d="M133.94 729.42L198.9 766.92L198.9 841.92L133.94 879.42L68.99 841.92L68.99 766.92zM198.9 -58.08L263.85 -20.58L263.85 54.42L198.9 91.92L133.94 54.42L133.94 -20.58zM328.81 616.92L393.76 654.42L393.76 729.42L328.81 766.92L263.85 729.42L263.85 654.42zM458.71 -58.08L523.67 -20.58L523.67 54.42L458.71 91.92L393.76 54.42L393.76 -20.58zM783.48 954.42L848.44 991.92L848.44 1066.92L783.48 1104.42L718.53 1066.92L718.53 991.92zM848.43 -58.08L913.39 -20.58L913.39 54.42L848.43 91.92L783.48 54.42L783.48 -20.58zM913.39 279.42L978.34 316.92L978.34 391.92L913.39 429.42L848.43 391.92L848.43 316.92zM1108.25 391.92L1173.2 429.42L1173.2 504.42L1108.25 541.92L1043.3 504.42L1043.3 429.42zM1303.11 729.42L1368.06 766.92L1368.06 841.92L1303.11 879.42L1238.16 841.92L1238.16 766.92zM1238.16 841.92L1303.11 879.42L1303.11 954.42L1238.16 991.92L1173.2 954.42L1173.2 879.42zM1433.02 54.42L1497.97 91.92L1497.97 166.92L1433.02 204.42L1368.07 166.92L1368.07 91.92zM1562.93 54.42L1627.88 91.92L1627.88 166.92L1562.93 204.42L1497.97 166.92L1497.97 91.92zM1497.97 616.92L1562.93 654.42L1562.93 729.42L1497.97 766.92L1433.02 729.42L1433.02 654.42zM1627.88 391.92L1692.83 429.42L1692.83 504.42L1627.88 541.92L1562.93 504.42L1562.93 429.42zM1822.74 279.42L1887.69 316.92L1887.69 391.92L1822.74 429.42L1757.79 391.92L1757.79 316.92z" stroke="rgba(3, 7, 30, 1)" stroke-width="2"></path><path d="M126.44 729.42 a7.5 7.5 0 1 0 15 0 a7.5 7.5 0 1 0 -15 0zM191.4 766.92 a7.5 7.5 0 1 0 15 0 a7.5 7.5 0 1 0 -15 0zM191.4 841.92 a7.5 7.5 0 1 0 15 0 a7.5 7.5 0 1 0 -15 0zM126.44 879.42 a7.5 7.5 0 1 0 15 0 a7.5 7.5 0 1 0 -15 0zM61.49 841.92 a7.5 7.5 0 1 0 15 0 a7.5 7.5 0 1 0 -15 0zM61.49 766.92 a7.5 7.5 0 1 0 15 0 a7.5 7.5 0 1 0 -15 0zM191.4 -58.08 a7.5 7.5 0 1 0 15 0 a7.5 7.5 0 1 0 -15 0zM256.35 -20.58 a7.5 7.5 0 1 0 15 0 a7.5 7.5 0 1 0 -15 0zM256.35 54.42 a7.5 7.5 0 1 0 15 0 a7.5 7.5 0 1 0 -15 0zM191.4 91.92 a7.5 7.5 0 1 0 15 0 a7.5 7.5 0 1 0 -15 0zM126.44 54.42 a7.5 7.5 0 1 0 15 0 a7.5 7.5 0 1 0 -15 0zM126.44 -20.58 a7.5 7.5 0 1 0 15 0 a7.5 7.5 0 1 0 -15 0zM321.31 616.92 a7.5 7.5 0 1 0 15 0 a7.5 7.5 0 1 0 -15 0zM386.26 654.42 a7.5 7.5 0 1 0 15 0 a7.5 7.5 0 1 0 -15 0zM386.26 729.42 a7.5 7.5 0 1 0 15 0 a7.5 7.5 0 1 0 -15 0zM321.31 766.92 a7.5 7.5 0 1 0 15 0 a7.5 7.5 0 1 0 -15 0zM256.35 729.42 a7.5 7.5 0 1 0 15 0 a7.5 7.5 0 1 0 -15 0zM256.35 654.42 a7.5 7.5 0 1 0 15 0 a7.5 7.5 0 1 0 -15 0zM451.21 -58.08 a7.5 7.5 0 1 0 15 0 a7.5 7.5 0 1 0 -15 0zM516.17 -20.58 a7.5 7.5 0 1 0 15 0 a7.5 7.5 0 1 0 -15 0zM516.17 54.42 a7.5 7.5 0 1 0 15 0 a7.5 7.5 0 1 0 -15 0zM451.21 91.92 a7.5 7.5 0 1 0 15 0 a7.5 7.5 0 1 0 -15 0zM386.26 54.42 a7.5 7.5 0 1 0 15 0 a7.5 7.5 0 1 0 -15 0zM386.26 -20.58 a7.5 7.5 0 1 0 15 0 a7.5 7.5 0 1 0 -15 0zM775.98 954.42 a7.5 7.5 0 1 0 15 0 a7.5 7.5 0 1 0 -15 0zM840.94 991.92 a7.5 7.5 0 1 0 15 0 a7.5 7.5 0 1 0 -15 0zM840.94 1066.92 a7.5 7.5 0 1 0 15 0 a7.5 7.5 0 1 0 -15 0zM775.98 1104.42 a7.5 7.5 0 1 0 15 0 a7.5 7.5 0 1 0 -15 0zM711.03 1066.92 a7.5 7.5 0 1 0 15 0 a7.5 7.5 0 1 0 -15 0zM711.03 991.92 a7.5 7.5 0 1 0 15 0 a7.5 7.5 0 1 0 -15 0zM840.93 -58.08 a7.5 7.5 0 1 0 15 0 a7.5 7.5 0 1 0 -15 0zM905.89 -20.58 a7.5 7.5 0 1 0 15 0 a7.5 7.5 0 1 0 -15 0zM905.89 54.42 a7.5 7.5 0 1 0 15 0 a7.5 7.5 0 1 0 -15 0zM840.93 91.92 a7.5 7.5 0 1 0 15 0 a7.5 7.5 0 1 0 -15 0zM775.98 54.42 a7.5 7.5 0 1 0 15 0 a7.5 7.5 0 1 0 -15 0zM775.98 -20.58 a7.5 7.5 0 1 0 15 0 a7.5 7.5 0 1 0 -15 0zM905.89 279.42 a7.5 7.5 0 1 0 15 0 a7.5 7.5 0 1 0 -15 0zM970.84 316.92 a7.5 7.5 0 1 0 15 0 a7.5 7.5 0 1 0 -15 0zM970.84 391.92 a7.5 7.5 0 1 0 15 0 a7.5 7.5 0 1 0 -15 0zM905.89 429.42 a7.5 7.5 0 1 0 15 0 a7.5 7.5 0 1 0 -15 0zM840.93 391.92 a7.5 7.5 0 1 0 15 0 a7.5 7.5 0 1 0 -15 0zM840.93 316.92 a7.5 7.5 0 1 0 15 0 a7.5 7.5 0 1 0 -15 0zM1100.75 391.92 a7.5 7.5 0 1 0 15 0 a7.5 7.5 0 1 0 -15 0zM1165.7 429.42 a7.5 7.5 0 1 0 15 0 a7.5 7.5 0 1 0 -15 0zM1165.7 504.42 a7.5 7.5 0 1 0 15 0 a7.5 7.5 0 1 0 -15 0zM1100.75 541.92 a7.5 7.5 0 1 0 15 0 a7.5 7.5 0 1 0 -15 0zM1035.8 504.42 a7.5 7.5 0 1 0 15 0 a7.5 7.5 0 1 0 -15 0zM1035.8 429.42 a7.5 7.5 0 1 0 15 0 a7.5 7.5 0 1 0 -15 0zM1295.61 729.42 a7.5 7.5 0 1 0 15 0 a7.5 7.5 0 1 0 -15 0zM1360.56 766.92 a7.5 7.5 0 1 0 15 0 a7.5 7.5 0 1 0 -15 0zM1360.56 841.92 a7.5 7.5 0 1 0 15 0 a7.5 7.5 0 1 0 -15 0zM1295.61 879.42 a7.5 7.5 0 1 0 15 0 a7.5 7.5 0 1 0 -15 0zM1230.66 841.92 a7.5 7.5 0 1 0 15 0 a7.5 7.5 0 1 0 -15 0zM1230.66 766.92 a7.5 7.5 0 1 0 15 0 a7.5 7.5 0 1 0 -15 0zM1295.61 954.42 a7.5 7.5 0 1 0 15 0 a7.5 7.5 0 1 0 -15 0zM1230.66 991.92 a7.5 7.5 0 1 0 15 0 a7.5 7.5 0 1 0 -15 0zM1165.7 954.42 a7.5 7.5 0 1 0 15 0 a7.5 7.5 0 1 0 -15 0zM1165.7 879.42 a7.5 7.5 0 1 0 15 0 a7.5 7.5 0 1 0 -15 0zM1425.52 54.42 a7.5 7.5 0 1 0 15 0 a7.5 7.5 0 1 0 -15 0zM1490.47 91.92 a7.5 7.5 0 1 0 15 0 a7.5 7.5 0 1 0 -15 0zM1490.47 166.92 a7.5 7.5 0 1 0 15 0 a7.5 7.5 0 1 0 -15 0zM1425.52 204.42 a7.5 7.5 0 1 0 15 0 a7.5 7.5 0 1 0 -15 0zM1360.57 166.92 a7.5 7.5 0 1 0 15 0 a7.5 7.5 0 1 0 -15 0zM1360.57 91.92 a7.5 7.5 0 1 0 15 0 a7.5 7.5 0 1 0 -15 0zM1555.43 54.42 a7.5 7.5 0 1 0 15 0 a7.5 7.5 0 1 0 -15 0zM1620.38 91.92 a7.5 7.5 0 1 0 15 0 a7.5 7.5 0 1 0 -15 0zM1620.38 166.92 a7.5 7.5 0 1 0 15 0 a7.5 7.5 0 1 0 -15 0zM1555.43 204.42 a7.5 7.5 0 1 0 15 0 a7.5 7.5 0 1 0 -15 0zM1490.47 616.92 a7.5 7.5 0 1 0 15 0 a7.5 7.5 0 1 0 -15 0zM1555.43 654.42 a7.5 7.5 0 1 0 15 0 a7.5 7.5 0 1 0 -15 0zM1555.43 729.42 a7.5 7.5 0 1 0 15 0 a7.5 7.5 0 1 0 -15 0zM1490.47 766.92 a7.5 7.5 0 1 0 15 0 a7.5 7.5 0 1 0 -15 0zM1425.52 729.42 a7.5 7.5 0 1 0 15 0 a7.5 7.5 0 1 0 -15 0zM1425.52 654.42 a7.5 7.5 0 1 0 15 0 a7.5 7.5 0 1 0 -15 0zM1620.38 391.92 a7.5 7.5 0 1 0 15 0 a7.5 7.5 0 1 0 -15 0zM1685.33 429.42 a7.5 7.5 0 1 0 15 0 a7.5 7.5 0 1 0 -15 0zM1685.33 504.42 a7.5 7.5 0 1 0 15 0 a7.5 7.5 0 1 0 -15 0zM1620.38 541.92 a7.5 7.5 0 1 0 15 0 a7.5 7.5 0 1 0 -15 0zM1555.43 504.42 a7.5 7.5 0 1 0 15 0 a7.5 7.5 0 1 0 -15 0zM1555.43 429.42 a7.5 7.5 0 1 0 15 0 a7.5 7.5 0 1 0 -15 0zM1815.24 279.42 a7.5 7.5 0 1 0 15 0 a7.5 7.5 0 1 0 -15 0zM1880.19 316.92 a7.5 7.5 0 1 0 15 0 a7.5 7.5 0 1 0 -15 0zM1880.19 391.92 a7.5 7.5 0 1 0 15 0 a7.5 7.5 0 1 0 -15 0zM1815.24 429.42 a7.5 7.5 0 1 0 15 0 a7.5 7.5 0 1 0 -15 0zM1750.29 391.92 a7.5 7.5 0 1 0 15 0 a7.5 7.5 0 1 0 -15 0zM1750.29 316.92 a7.5 7.5 0 1 0 15 0 a7.5 7.5 0 1 0 -15 0z" fill="rgba(3, 7, 30, 1)"></path><path d="M28.83 102.32L72.13 127.32L72.13 177.32L28.83 202.32L-14.47 177.32L-14.47 127.32zM28.83 252.32L72.13 277.32L72.13 327.32L28.83 352.32L-14.47 327.32L-14.47 277.32zM72.13 327.32L115.44 352.32L115.44 402.32L72.13 427.32L28.83 402.32L28.83 352.32zM28.83 402.32L72.13 427.32L72.13 477.32L28.83 502.32L-14.47 477.32L-14.47 427.32zM72.13 627.32L115.44 652.32L115.44 702.32L72.13 727.32L28.83 702.32L28.83 652.32zM28.83 702.32L72.13 727.32L72.13 777.32L28.83 802.32L-14.47 777.32L-14.47 727.32zM115.44 852.32L158.74 877.32L158.74 927.32L115.44 952.32L72.13 927.32L72.13 877.32zM245.34 27.32L288.64 52.32L288.64 102.32L245.34 127.32L202.04 102.32L202.04 52.32zM245.34 477.32L288.64 502.32L288.64 552.32L245.34 577.32L202.04 552.32L202.04 502.32zM202.04 702.32L245.34 727.32L245.34 777.32L202.04 802.32L158.74 777.32L158.74 727.32zM245.34 777.32L288.64 802.32L288.64 852.32L245.34 877.32L202.04 852.32L202.04 802.32zM245.34 927.32L288.64 952.32L288.64 1002.32L245.34 1027.32L202.04 1002.32L202.04 952.32zM202.04 1002.32L245.34 1027.32L245.34 1077.32L202.04 1102.32L158.74 1077.32L158.74 1027.32zM288.64 702.32L331.95 727.32L331.95 777.32L288.64 802.32L245.34 777.32L245.34 727.32zM331.95 777.32L375.25 802.32L375.25 852.32L331.95 877.32L288.64 852.32L288.64 802.32zM288.64 852.32L331.95 877.32L331.95 927.32L288.64 952.32L245.34 927.32L245.34 877.32zM288.64 1002.32L331.95 1027.32L331.95 1077.32L288.64 1102.32L245.34 1077.32L245.34 1027.32zM375.25 -47.68L418.55 -22.68L418.55 27.32L375.25 52.32L331.95 27.32L331.95 -22.68zM375.25 102.32L418.55 127.32L418.55 177.32L375.25 202.32L331.95 177.32L331.95 127.32zM418.55 927.32L461.86 952.32L461.86 1002.32L418.55 1027.32L375.25 1002.32L375.25 952.32zM375.25 1002.32L418.55 1027.32L418.55 1077.32L375.25 1102.32L331.95 1077.32L331.95 1027.32zM461.86 252.32L505.16 277.32L505.16 327.32L461.86 352.32L418.55 327.32L418.55 277.32zM505.16 327.32L548.46 352.32L548.46 402.32L505.16 427.32L461.86 402.32L461.86 352.32zM461.86 552.32L505.16 577.32L505.16 627.32L461.86 652.32L418.55 627.32L418.55 577.32zM461.86 702.32L505.16 727.32L505.16 777.32L461.86 802.32L418.55 777.32L418.55 727.32zM505.16 777.32L548.46 802.32L548.46 852.32L505.16 877.32L461.86 852.32L461.86 802.32zM591.76 177.32L635.07 202.32L635.07 252.32L591.76 277.32L548.46 252.32L548.46 202.32zM548.46 252.32L591.76 277.32L591.76 327.32L548.46 352.32L505.16 327.32L505.16 277.32zM548.46 552.32L591.76 577.32L591.76 627.32L548.46 652.32L505.16 627.32L505.16 577.32zM548.46 702.32L591.76 727.32L591.76 777.32L548.46 802.32L505.16 777.32L505.16 727.32zM548.46 852.32L591.76 877.32L591.76 927.32L548.46 952.32L505.16 927.32L505.16 877.32zM678.37 177.32L721.67 202.32L721.67 252.32L678.37 277.32L635.07 252.32L635.07 202.32zM678.37 327.32L721.67 352.32L721.67 402.32L678.37 427.32L635.07 402.32L635.07 352.32zM635.07 402.32L678.37 427.32L678.37 477.32L635.07 502.32L591.76 477.32L591.76 427.32zM678.37 477.32L721.67 502.32L721.67 552.32L678.37 577.32L635.07 552.32L635.07 502.32zM678.37 627.32L721.67 652.32L721.67 702.32L678.37 727.32L635.07 702.32L635.07 652.32zM635.07 852.32L678.37 877.32L678.37 927.32L635.07 952.32L591.76 927.32L591.76 877.32zM721.67 252.32L764.97 277.32L764.97 327.32L721.67 352.32L678.37 327.32L678.37 277.32zM764.97 327.32L808.28 352.32L808.28 402.32L764.97 427.32L721.67 402.32L721.67 352.32zM764.97 627.32L808.28 652.32L808.28 702.32L764.97 727.32L721.67 702.32L721.67 652.32zM764.97 927.32L808.28 952.32L808.28 1002.32L764.97 1027.32L721.67 1002.32L721.67 952.32zM721.67 1002.32L764.97 1027.32L764.97 1077.32L721.67 1102.32L678.37 1077.32L678.37 1027.32zM851.58 27.32L894.88 52.32L894.88 102.32L851.58 127.32L808.28 102.32L808.28 52.32zM808.28 102.32L851.58 127.32L851.58 177.32L808.28 202.32L764.97 177.32L764.97 127.32zM851.58 177.32L894.88 202.32L894.88 252.32L851.58 277.32L808.28 252.32L808.28 202.32zM808.28 252.32L851.58 277.32L851.58 327.32L808.28 352.32L764.97 327.32L764.97 277.32zM851.58 477.32L894.88 502.32L894.88 552.32L851.58 577.32L808.28 552.32L808.28 502.32zM808.28 552.32L851.58 577.32L851.58 627.32L808.28 652.32L764.97 627.32L764.97 577.32zM938.18 27.32L981.49 52.32L981.49 102.32L938.18 127.32L894.88 102.32L894.88 52.32zM938.18 177.32L981.49 202.32L981.49 252.32L938.18 277.32L894.88 252.32L894.88 202.32zM938.18 327.32L981.49 352.32L981.49 402.32L938.18 427.32L894.88 402.32L894.88 352.32zM894.88 552.32L938.18 577.32L938.18 627.32L894.88 652.32L851.58 627.32L851.58 577.32zM894.88 702.32L938.18 727.32L938.18 777.32L894.88 802.32L851.58 777.32L851.58 727.32zM894.88 852.32L938.18 877.32L938.18 927.32L894.88 952.32L851.58 927.32L851.58 877.32zM981.49 -47.68L1024.79 -22.68L1024.79 27.32L981.49 52.32L938.18 27.32L938.18 -22.68zM1024.79 327.32L1068.09 352.32L1068.09 402.32L1024.79 427.32L981.49 402.32L981.49 352.32zM1024.79 477.32L1068.09 502.32L1068.09 552.32L1024.79 577.32L981.49 552.32L981.49 502.32zM981.49 552.32L1024.79 577.32L1024.79 627.32L981.49 652.32L938.18 627.32L938.18 577.32zM1024.79 777.32L1068.09 802.32L1068.09 852.32L1024.79 877.32L981.49 852.32L981.49 802.32zM1068.09 102.32L1111.39 127.32L1111.39 177.32L1068.09 202.32L1024.79 177.32L1024.79 127.32zM1111.39 477.32L1154.69 502.32L1154.69 552.32L1111.39 577.32L1068.09 552.32L1068.09 502.32zM1111.39 777.32L1154.69 802.32L1154.69 852.32L1111.39 877.32L1068.09 852.32L1068.09 802.32zM1111.39 927.32L1154.69 952.32L1154.69 1002.32L1111.39 1027.32L1068.09 1002.32L1068.09 952.32zM1068.09 1002.32L1111.39 1027.32L1111.39 1077.32L1068.09 1102.32L1024.79 1077.32L1024.79 1027.32zM1154.69 -47.68L1198 -22.68L1198 27.32L1154.69 52.32L1111.39 27.32L1111.39 -22.68zM1154.69 252.32L1198 277.32L1198 327.32L1154.69 352.32L1111.39 327.32L1111.39 277.32zM1198 327.32L1241.3 352.32L1241.3 402.32L1198 427.32L1154.69 402.32L1154.69 352.32zM1154.69 1002.32L1198 1027.32L1198 1077.32L1154.69 1102.32L1111.39 1077.32L1111.39 1027.32zM1284.6 177.32L1327.9 202.32L1327.9 252.32L1284.6 277.32L1241.3 252.32L1241.3 202.32zM1241.3 252.32L1284.6 277.32L1284.6 327.32L1241.3 352.32L1198 327.32L1198 277.32zM1284.6 327.32L1327.9 352.32L1327.9 402.32L1284.6 427.32L1241.3 402.32L1241.3 352.32zM1284.6 627.32L1327.9 652.32L1327.9 702.32L1284.6 727.32L1241.3 702.32L1241.3 652.32zM1241.3 702.32L1284.6 727.32L1284.6 777.32L1241.3 802.32L1198 777.32L1198 727.32zM1284.6 777.32L1327.9 802.32L1327.9 852.32L1284.6 877.32L1241.3 852.32L1241.3 802.32zM1327.9 252.32L1371.21 277.32L1371.21 327.32L1327.9 352.32L1284.6 327.32L1284.6 277.32zM1327.9 402.32L1371.21 427.32L1371.21 477.32L1327.9 502.32L1284.6 477.32L1284.6 427.32zM1327.9 702.32L1371.21 727.32L1371.21 777.32L1327.9 802.32L1284.6 777.32L1284.6 727.32zM1371.21 777.32L1414.51 802.32L1414.51 852.32L1371.21 877.32L1327.9 852.32L1327.9 802.32zM1457.81 27.32L1501.12 52.32L1501.12 102.32L1457.81 127.32L1414.51 102.32L1414.51 52.32zM1457.81 327.32L1501.12 352.32L1501.12 402.32L1457.81 427.32L1414.51 402.32L1414.51 352.32zM1414.51 552.32L1457.81 577.32L1457.81 627.32L1414.51 652.32L1371.21 627.32L1371.21 577.32zM1457.81 777.32L1501.12 802.32L1501.12 852.32L1457.81 877.32L1414.51 852.32L1414.51 802.32zM1501.12 402.32L1544.42 427.32L1544.42 477.32L1501.12 502.32L1457.81 477.32L1457.81 427.32zM1544.42 627.32L1587.72 652.32L1587.72 702.32L1544.42 727.32L1501.12 702.32L1501.12 652.32zM1501.12 702.32L1544.42 727.32L1544.42 777.32L1501.12 802.32L1457.81 777.32L1457.81 727.32zM1501.12 1002.32L1544.42 1027.32L1544.42 1077.32L1501.12 1102.32L1457.81 1077.32L1457.81 1027.32zM1631.02 327.32L1674.33 352.32L1674.33 402.32L1631.02 427.32L1587.72 402.32L1587.72 352.32zM1587.72 552.32L1631.02 577.32L1631.02 627.32L1587.72 652.32L1544.42 627.32L1544.42 577.32zM1587.72 702.32L1631.02 727.32L1631.02 777.32L1587.72 802.32L1544.42 777.32L1544.42 727.32zM1631.02 927.32L1674.33 952.32L1674.33 1002.32L1631.02 1027.32L1587.72 1002.32L1587.72 952.32zM1717.63 177.32L1760.93 202.32L1760.93 252.32L1717.63 277.32L1674.33 252.32L1674.33 202.32zM1674.33 252.32L1717.63 277.32L1717.63 327.32L1674.33 352.32L1631.02 327.32L1631.02 277.32zM1717.63 477.32L1760.93 502.32L1760.93 552.32L1717.63 577.32L1674.33 552.32L1674.33 502.32zM1717.63 627.32L1760.93 652.32L1760.93 702.32L1717.63 727.32L1674.33 702.32L1674.33 652.32zM1760.93 252.32L1804.23 277.32L1804.23 327.32L1760.93 352.32L1717.63 327.32L1717.63 277.32zM1804.23 327.32L1847.54 352.32L1847.54 402.32L1804.23 427.32L1760.93 402.32L1760.93 352.32zM1760.93 552.32L1804.23 577.32L1804.23 627.32L1760.93 652.32L1717.63 627.32L1717.63 577.32zM1760.93 702.32L1804.23 727.32L1804.23 777.32L1760.93 802.32L1717.63 777.32L1717.63 727.32zM1804.23 927.32L1847.54 952.32L1847.54 1002.32L1804.23 1027.32L1760.93 1002.32L1760.93 952.32zM1847.54 -47.68L1890.84 -22.68L1890.84 27.32L1847.54 52.32L1804.23 27.32L1804.23 -22.68zM1890.84 27.32L1934.14 52.32L1934.14 102.32L1890.84 127.32L1847.54 102.32L1847.54 52.32zM1847.54 252.32L1890.84 277.32L1890.84 327.32L1847.54 352.32L1804.23 327.32L1804.23 277.32zM1847.54 552.32L1890.84 577.32L1890.84 627.32L1847.54 652.32L1804.23 627.32L1804.23 577.32zM1890.84 777.32L1934.14 802.32L1934.14 852.32L1890.84 877.32L1847.54 852.32L1847.54 802.32zM1934.14 -47.68L1977.44 -22.68L1977.44 27.32L1934.14 52.32L1890.84 27.32L1890.84 -22.68zM1977.44 27.32L2020.75 52.32L2020.75 102.32L1977.44 127.32L1934.14 102.32L1934.14 52.32zM1934.14 102.32L1977.44 127.32L1977.44 177.32L1934.14 202.32L1890.84 177.32L1890.84 127.32zM1934.14 402.32L1977.44 427.32L1977.44 477.32L1934.14 502.32L1890.84 477.32L1890.84 427.32zM1934.14 552.32L1977.44 577.32L1977.44 627.32L1934.14 652.32L1890.84 627.32L1890.84 577.32zM1934.14 852.32L1977.44 877.32L1977.44 927.32L1934.14 952.32L1890.84 927.32L1890.84 877.32z" stroke="rgba(144, 80, 220, 1)" stroke-width="2"></path></g><defs><mask id="SvgjsMask1017"><rect width="1920" height="1040" fill="#ffffff"></rect></mask></defs></svg>