<svg xmlns="http://www.w3.org/2000/svg" version="1.1" xlink="http://www.w3.org/1999/xlink" svgjs="http://svgjs.dev/svgjs" width="1920" height="1040" preserveAspectRatio="none" viewBox="0 0 1920 1040"><g mask="url(&quot;#SvgjsMask1442&quot;)" fill="none"><rect width="1920" height="1040" x="0" y="0" fill="rgba(3, 7, 30, 1)"></rect><g transform="translate(0, 0)" stroke-linecap="round"><path d="M400 469.1 L400 570.9" stroke-width="15" stroke="rgba(245, 245, 245, 1)"></path><path d="M420 221.49 L420 818.51" stroke-width="15" stroke="rgba(144, 80, 220, 1)"></path><path d="M440 464.13 L440 575.87" stroke-width="15" stroke="rgba(245, 245, 245, 1)"></path><path d="M460 413.35 L460 626.65" stroke-width="15" stroke="rgba(144, 80, 220, 1)"></path><path d="M480 474.76 L480 565.24" stroke-width="15" stroke="rgba(144, 80, 220, 1)"></path><path d="M500 409.94 L500 630.07" stroke-width="15" stroke="rgba(245, 245, 245, 1)"></path><path d="M520 367.71 L520 672.29" stroke-width="15" stroke="rgba(144, 80, 220, 1)"></path><path d="M540 376.96 L540 663.04" stroke-width="15" stroke="rgba(245, 245, 245, 1)"></path><path d="M560 485.38 L560 554.62" stroke-width="15" stroke="rgba(245, 245, 245, 1)"></path><path d="M580 456.05 L580 583.96" stroke-width="15" stroke="rgba(245, 245, 245, 1)"></path><path d="M600 230.57 L600 809.43" stroke-width="15" stroke="rgba(144, 80, 220, 1)"></path><path d="M620 344.14 L620 695.86" stroke-width="15" stroke="rgba(245, 245, 245, 1)"></path><path d="M640 429.11 L640 610.89" stroke-width="15" stroke="rgba(144, 80, 220, 1)"></path><path d="M660 470.23 L660 569.77" stroke-width="15" stroke="rgba(245, 245, 245, 1)"></path><path d="M680 386.75 L680 653.25" stroke-width="15" stroke="rgba(245, 245, 245, 1)"></path><path d="M700 437.97 L700 602.03" stroke-width="15" stroke="rgba(245, 245, 245, 1)"></path><path d="M720 228.44 L720 811.56" stroke-width="15" stroke="rgba(144, 80, 220, 1)"></path><path d="M740 326.68 L740 713.32" stroke-width="15" stroke="rgba(144, 80, 220, 1)"></path><path d="M760 225.86 L760 814.14" stroke-width="15" stroke="rgba(245, 245, 245, 1)"></path><path d="M780 247.77 L780 792.23" stroke-width="15" stroke="rgba(245, 245, 245, 1)"></path><path d="M800 469.7 L800 570.29" stroke-width="15" stroke="rgba(245, 245, 245, 1)"></path><path d="M820 234 L820 806" stroke-width="15" stroke="rgba(245, 245, 245, 1)"></path><path d="M840 476.73 L840 563.27" stroke-width="15" stroke="rgba(245, 245, 245, 1)"></path><path d="M860 399 L860 641" stroke-width="15" stroke="rgba(245, 245, 245, 1)"></path><path d="M880 227.14 L880 812.86" stroke-width="15" stroke="rgba(245, 245, 245, 1)"></path><path d="M900 255.48 L900 784.52" stroke-width="15" stroke="rgba(245, 245, 245, 1)"></path><path d="M920 386.64 L920 653.36" stroke-width="15" stroke="rgba(144, 80, 220, 1)"></path><path d="M940 405.86 L940 634.14" stroke-width="15" stroke="rgba(245, 245, 245, 1)"></path><path d="M960 406.23 L960 633.77" stroke-width="15" stroke="rgba(144, 80, 220, 1)"></path><path d="M980 425.67 L980 614.34" stroke-width="15" stroke="rgba(245, 245, 245, 1)"></path><path d="M1000 353.82 L1000 686.17" stroke-width="15" stroke="rgba(144, 80, 220, 1)"></path><path d="M1020 418.85 L1020 621.15" stroke-width="15" stroke="rgba(245, 245, 245, 1)"></path><path d="M1040 233.93 L1040 806.08" stroke-width="15" stroke="rgba(144, 80, 220, 1)"></path><path d="M1060 307.36 L1060 732.64" stroke-width="15" stroke="rgba(144, 80, 220, 1)"></path><path d="M1080 327.61 L1080 712.39" stroke-width="15" stroke="rgba(144, 80, 220, 1)"></path><path d="M1100 390.66 L1100 649.34" stroke-width="15" stroke="rgba(245, 245, 245, 1)"></path><path d="M1120 292.53 L1120 747.47" stroke-width="15" stroke="rgba(245, 245, 245, 1)"></path><path d="M1140 241.37 L1140 798.63" stroke-width="15" stroke="rgba(245, 245, 245, 1)"></path><path d="M1160 244.7 L1160 795.3" stroke-width="15" stroke="rgba(144, 80, 220, 1)"></path><path d="M1180 280.88 L1180 759.12" stroke-width="15" stroke="rgba(144, 80, 220, 1)"></path><path d="M1200 289.49 L1200 750.51" stroke-width="15" stroke="rgba(245, 245, 245, 1)"></path><path d="M1220 481.25 L1220 558.75" stroke-width="15" stroke="rgba(245, 245, 245, 1)"></path><path d="M1240 423.06 L1240 616.94" stroke-width="15" stroke="rgba(144, 80, 220, 1)"></path><path d="M1260 436.05 L1260 603.95" stroke-width="15" stroke="rgba(144, 80, 220, 1)"></path><path d="M1280 453.83 L1280 586.16" stroke-width="15" stroke="rgba(245, 245, 245, 1)"></path><path d="M1300 224.87 L1300 815.13" stroke-width="15" stroke="rgba(144, 80, 220, 1)"></path><path d="M1320 383.81 L1320 656.19" stroke-width="15" stroke="rgba(245, 245, 245, 1)"></path><path d="M1340 302.32 L1340 737.67" stroke-width="15" stroke="rgba(245, 245, 245, 1)"></path><path d="M1360 292.16 L1360 747.84" stroke-width="15" stroke="rgba(144, 80, 220, 1)"></path><path d="M1380 477.82 L1380 562.17" stroke-width="15" stroke="rgba(144, 80, 220, 1)"></path><path d="M1400 326.95 L1400 713.05" stroke-width="15" stroke="rgba(144, 80, 220, 1)"></path><path d="M1420 428.07 L1420 611.93" stroke-width="15" stroke="rgba(144, 80, 220, 1)"></path><path d="M1440 373.76 L1440 666.24" stroke-width="15" stroke="rgba(144, 80, 220, 1)"></path><path d="M1460 299.84 L1460 740.16" stroke-width="15" stroke="rgba(245, 245, 245, 1)"></path><path d="M1480 460.65 L1480 579.35" stroke-width="15" stroke="rgba(144, 80, 220, 1)"></path><path d="M1500 336.19 L1500 703.81" stroke-width="15" stroke="rgba(245, 245, 245, 1)"></path><path d="M1520 230.86 L1520 809.14" stroke-width="15" stroke="rgba(144, 80, 220, 1)"></path></g></g><defs><mask id="SvgjsMask1442"><rect width="1920" height="1040" fill="#ffffff"></rect></mask></defs></svg>