<svg xmlns="http://www.w3.org/2000/svg" version="1.1" xlink="http://www.w3.org/1999/xlink" svgjs="http://svgjs.dev/svgjs" width="1920" height="1040" preserveAspectRatio="none" viewBox="0 0 1920 1040"><g mask="url(&quot;#SvgjsMask1056&quot;)" fill="none"><rect width="1920" height="1040" x="0" y="0" fill="rgba(245, 245, 245, 1)"></rect><path d="M 0,783 C 76.8,678.2 230.4,286.8 384,259 C 537.6,231.2 614.4,650 768,644 C 921.6,638 998.4,226 1152,229 C 1305.6,232 1382.4,637.2 1536,659 C 1689.6,680.8 1843.2,402.2 1920,338L1920 1040L0 1040z" fill="rgba(144, 80, 220, 1)"></path><path d="M 0,411 C 128,456.4 384,685.8 640,638 C 896,590.2 1024,132.6 1280,172 C 1536,211.4 1792,702.4 1920,835L1920 1040L0 1040z" fill="rgba(3, 7, 30, 1)"></path></g><defs><mask id="SvgjsMask1056"><rect width="1920" height="1040" fill="#ffffff"></rect></mask></defs></svg>