<svg xmlns="http://www.w3.org/2000/svg" version="1.1" xmlns:xlink="http://www.w3.org/1999/xlink" xmlns:svgjs="http://svgjs.dev/svgjs" width="1440" height="560" preserveAspectRatio="none" viewBox="0 0 1440 560"><g mask="url(&quot;#SvgjsMask1003&quot;)" fill="none"><path d="M881.91 610.55C994.33 537.77 929.98 143.19 1133.26 137.48 1336.53 131.77 1503.46 303.28 1635.95 305.48" stroke="rgba(144, 80, 220, 1)" stroke-width="2"></path><path d="M614.2 625.11C724.6 609.8 672.52 366 966.78 352.25 1261.03 338.5 1485.22 109.36 1671.93 105.85" stroke="rgba(144, 80, 220, 1)" stroke-width="2"></path><path d="M644.87 671.61C727.3 668.83 699.1 549.52 947.57 540.44 1196.04 531.36 1386.92 272.35 1552.97 266.04" stroke="rgba(144, 80, 220, 1)" stroke-width="2"></path><path d="M656.95 653.95C767.62 625.57 700.15 342.03 972.24 323.12 1244.32 304.21 1436.46 113.16 1602.81 110.32" stroke="rgba(144, 80, 220, 1)" stroke-width="2"></path><path d="M368.53 585.81C499.62 558.19 549.33 222.41 757.65 217.35 965.96 212.29 952.2 287.35 1146.76 287.35 1341.32 287.35 1437.04 217.63 1535.88 217.35" stroke="rgba(144, 80, 220, 1)" stroke-width="2"></path></g><defs><mask id="SvgjsMask1003"><rect width="1440" height="560" fill="#ffffff"></rect></mask></defs></svg>